<mxfile host="Electron" modified="2024-12-22T10:03:09.067Z" agent="Mozilla/5.0 (Windows NT 10.0; Win64; x64) AppleWebKit/537.36 (KHTML, like Gecko) draw.io/24.6.4 Chrome/124.0.6367.207 Electron/30.0.6 Safari/537.36" etag="Ii6h6EiybVYQu9pEPAbj" version="24.6.4" type="device">
  <diagram name="Page-1" id="GOc3L2S9jAjDeSrN-pxP">
    <mxGraphModel dx="1036" dy="614" grid="1" gridSize="10" guides="1" tooltips="1" connect="1" arrows="1" fold="1" page="1" pageScale="1" pageWidth="827" pageHeight="1169" math="0" shadow="0">
      <root>
        <mxCell id="0" />
        <mxCell id="1" parent="0" />
        <mxCell id="1KCFlJfuKgQnNo9uZqeQ-33" value="&lt;font style=&quot;font-size: 14px;&quot;&gt;JVM&lt;/font&gt;" style="rounded=0;whiteSpace=wrap;html=1;verticalAlign=bottom;fillColor=#ffe6cc;strokeColor=#d79b00;" parent="1" vertex="1">
          <mxGeometry x="176" y="350" width="140" height="90" as="geometry" />
        </mxCell>
        <mxCell id="1KCFlJfuKgQnNo9uZqeQ-20" value="&lt;font style=&quot;font-size: 14px;&quot;&gt;&amp;nbsp; &amp;nbsp;JVM&lt;/font&gt;" style="rounded=0;whiteSpace=wrap;html=1;verticalAlign=top;fillColor=#ffe6cc;strokeColor=#d79b00;align=left;" parent="1" vertex="1">
          <mxGeometry x="180" y="50" width="440" height="210" as="geometry" />
        </mxCell>
        <mxCell id="1KCFlJfuKgQnNo9uZqeQ-6" value="&lt;font style=&quot;font-size: 14px;&quot;&gt;micro-service A&lt;/font&gt;" style="rounded=0;whiteSpace=wrap;html=1;verticalAlign=top;dashed=1;fillColor=#f5f5f5;strokeColor=#666666;fontColor=#333333;" parent="1" vertex="1">
          <mxGeometry x="170" y="640" width="160" height="270" as="geometry" />
        </mxCell>
        <mxCell id="1KCFlJfuKgQnNo9uZqeQ-7" value="Thread_0" style="rounded=0;whiteSpace=wrap;html=1;fontSize=14;fillColor=#dae8fc;strokeColor=#6c8ebf;" parent="1" vertex="1">
          <mxGeometry x="210" y="140" width="95" height="30" as="geometry" />
        </mxCell>
        <mxCell id="1KCFlJfuKgQnNo9uZqeQ-8" value="Thread_1" style="rounded=0;whiteSpace=wrap;html=1;fontSize=14;fillColor=#dae8fc;strokeColor=#6c8ebf;" parent="1" vertex="1">
          <mxGeometry x="210" y="190" width="95" height="30" as="geometry" />
        </mxCell>
        <mxCell id="1KCFlJfuKgQnNo9uZqeQ-10" value="JVM中的某个类&lt;br&gt;&lt;font style=&quot;font-size: 10px;&quot;&gt;（静态变量 &lt;b&gt;cnt&lt;/b&gt;）&lt;/font&gt;" style="rounded=1;whiteSpace=wrap;html=1;fontSize=14;" parent="1" vertex="1">
          <mxGeometry x="380" y="150" width="120" height="60" as="geometry" />
        </mxCell>
        <mxCell id="1KCFlJfuKgQnNo9uZqeQ-11" value="" style="endArrow=classic;html=1;rounded=0;fontSize=14;exitX=1;exitY=0.5;exitDx=0;exitDy=0;entryX=0;entryY=0.5;entryDx=0;entryDy=0;" parent="1" source="1KCFlJfuKgQnNo9uZqeQ-7" target="1KCFlJfuKgQnNo9uZqeQ-10" edge="1">
          <mxGeometry width="50" height="50" relative="1" as="geometry">
            <mxPoint x="280" y="290" as="sourcePoint" />
            <mxPoint x="330" y="240" as="targetPoint" />
          </mxGeometry>
        </mxCell>
        <mxCell id="1KCFlJfuKgQnNo9uZqeQ-12" value="" style="endArrow=classic;html=1;rounded=0;fontSize=14;exitX=1;exitY=0.5;exitDx=0;exitDy=0;entryX=0;entryY=0.5;entryDx=0;entryDy=0;" parent="1" source="1KCFlJfuKgQnNo9uZqeQ-8" target="1KCFlJfuKgQnNo9uZqeQ-10" edge="1">
          <mxGeometry width="50" height="50" relative="1" as="geometry">
            <mxPoint x="290" y="165" as="sourcePoint" />
            <mxPoint x="380" y="190" as="targetPoint" />
          </mxGeometry>
        </mxCell>
        <mxCell id="1KCFlJfuKgQnNo9uZqeQ-13" value="&lt;b&gt;cnt++&lt;/b&gt;" style="text;html=1;strokeColor=none;fillColor=none;align=center;verticalAlign=middle;whiteSpace=wrap;rounded=0;fontSize=10;" parent="1" vertex="1">
          <mxGeometry x="310" y="140" width="60" height="30" as="geometry" />
        </mxCell>
        <mxCell id="1KCFlJfuKgQnNo9uZqeQ-14" value="&lt;b&gt;cnt++&lt;/b&gt;" style="text;html=1;strokeColor=none;fillColor=none;align=center;verticalAlign=middle;whiteSpace=wrap;rounded=0;fontSize=10;" parent="1" vertex="1">
          <mxGeometry x="310" y="190" width="60" height="30" as="geometry" />
        </mxCell>
        <mxCell id="1KCFlJfuKgQnNo9uZqeQ-15" value="&lt;font style=&quot;font-size: 12px;&quot;&gt;race condition&lt;/font&gt;" style="shape=callout;whiteSpace=wrap;html=1;perimeter=calloutPerimeter;rounded=0;fontSize=10;base=10;size=30;position=0.25;position2=0.2;fillColor=#f8cecc;strokeColor=#b85450;shadow=0;sketch=1;curveFitting=1;jiggle=2;" parent="1" vertex="1">
          <mxGeometry x="340" y="100" width="100" height="60" as="geometry" />
        </mxCell>
        <mxCell id="1KCFlJfuKgQnNo9uZqeQ-16" value="&lt;font size=&quot;1&quot; style=&quot;&quot;&gt;&lt;b style=&quot;font-size: 20px;&quot;&gt;线程锁&lt;/b&gt;&lt;/font&gt;" style="text;html=1;strokeColor=none;fillColor=none;align=center;verticalAlign=middle;whiteSpace=wrap;rounded=0;fontSize=12;" parent="1" vertex="1">
          <mxGeometry x="210" y="10" width="80" height="30" as="geometry" />
        </mxCell>
        <mxCell id="1KCFlJfuKgQnNo9uZqeQ-19" value="&lt;font style=&quot;font-size: 12px;&quot;&gt;需使用 synchronized/Lock等锁机制&lt;/font&gt;" style="shape=callout;whiteSpace=wrap;html=1;perimeter=calloutPerimeter;rounded=0;fontSize=10;base=10;size=30;position=0.25;position2=0;fillColor=#d5e8d4;strokeColor=#82b366;shadow=0;sketch=1;curveFitting=1;jiggle=2;" parent="1" vertex="1">
          <mxGeometry x="490" y="100" width="110" height="90" as="geometry" />
        </mxCell>
        <mxCell id="1KCFlJfuKgQnNo9uZqeQ-21" value="&lt;font style=&quot;font-size: 14px;&quot;&gt;JVM&lt;/font&gt;" style="rounded=0;whiteSpace=wrap;html=1;verticalAlign=bottom;fillColor=#ffe6cc;strokeColor=#d79b00;" parent="1" vertex="1">
          <mxGeometry x="176" y="460" width="140" height="90" as="geometry" />
        </mxCell>
        <mxCell id="1KCFlJfuKgQnNo9uZqeQ-22" value="Thread" style="rounded=0;whiteSpace=wrap;html=1;fontSize=14;fillColor=#dae8fc;strokeColor=#6c8ebf;" parent="1" vertex="1">
          <mxGeometry x="198" y="380" width="95" height="30" as="geometry" />
        </mxCell>
        <mxCell id="1KCFlJfuKgQnNo9uZqeQ-23" value="Thread" style="rounded=0;whiteSpace=wrap;html=1;fontSize=14;fillColor=#dae8fc;strokeColor=#6c8ebf;" parent="1" vertex="1">
          <mxGeometry x="201" y="490" width="95" height="30" as="geometry" />
        </mxCell>
        <mxCell id="1KCFlJfuKgQnNo9uZqeQ-24" value="Linux操作系统中的某个资源" style="rounded=1;whiteSpace=wrap;html=1;fontSize=14;" parent="1" vertex="1">
          <mxGeometry x="376" y="420" width="120" height="60" as="geometry" />
        </mxCell>
        <mxCell id="1KCFlJfuKgQnNo9uZqeQ-25" value="" style="endArrow=classic;html=1;rounded=0;fontSize=14;exitX=1;exitY=0.5;exitDx=0;exitDy=0;entryX=0;entryY=0.5;entryDx=0;entryDy=0;" parent="1" source="1KCFlJfuKgQnNo9uZqeQ-22" target="1KCFlJfuKgQnNo9uZqeQ-24" edge="1">
          <mxGeometry width="50" height="50" relative="1" as="geometry">
            <mxPoint x="266" y="480" as="sourcePoint" />
            <mxPoint x="316" y="430" as="targetPoint" />
          </mxGeometry>
        </mxCell>
        <mxCell id="1KCFlJfuKgQnNo9uZqeQ-26" value="" style="endArrow=classic;html=1;rounded=0;fontSize=14;exitX=1;exitY=0.5;exitDx=0;exitDy=0;entryX=0;entryY=0.5;entryDx=0;entryDy=0;" parent="1" source="1KCFlJfuKgQnNo9uZqeQ-23" target="1KCFlJfuKgQnNo9uZqeQ-24" edge="1">
          <mxGeometry width="50" height="50" relative="1" as="geometry">
            <mxPoint x="276" y="355" as="sourcePoint" />
            <mxPoint x="366" y="380" as="targetPoint" />
          </mxGeometry>
        </mxCell>
        <mxCell id="1KCFlJfuKgQnNo9uZqeQ-29" value="&lt;font style=&quot;font-size: 12px;&quot;&gt;race condition&lt;/font&gt;" style="shape=callout;whiteSpace=wrap;html=1;perimeter=calloutPerimeter;rounded=0;fontSize=10;base=10;size=30;position=0.16;position2=0.1;fillColor=#f8cecc;strokeColor=#b85450;shadow=0;sketch=1;curveFitting=1;jiggle=2;" parent="1" vertex="1">
          <mxGeometry x="346" y="365" width="100" height="60" as="geometry" />
        </mxCell>
        <mxCell id="1KCFlJfuKgQnNo9uZqeQ-30" value="&lt;font size=&quot;1&quot; style=&quot;&quot;&gt;&lt;b style=&quot;font-size: 20px;&quot;&gt;进程锁&lt;/b&gt;&lt;/font&gt;" style="text;html=1;strokeColor=none;fillColor=none;align=center;verticalAlign=middle;whiteSpace=wrap;rounded=0;fontSize=12;" parent="1" vertex="1">
          <mxGeometry x="198" y="300" width="80" height="30" as="geometry" />
        </mxCell>
        <mxCell id="1KCFlJfuKgQnNo9uZqeQ-31" value="&lt;font style=&quot;font-size: 12px;&quot;&gt;需使用文件锁&lt;br&gt;等锁机制&lt;/font&gt;" style="shape=callout;whiteSpace=wrap;html=1;perimeter=calloutPerimeter;rounded=0;fontSize=10;base=10;size=30;position=0.25;position2=0;fillColor=#d5e8d4;strokeColor=#82b366;shadow=0;sketch=1;curveFitting=1;jiggle=2;" parent="1" vertex="1">
          <mxGeometry x="551.5" y="440" width="100" height="90" as="geometry" />
        </mxCell>
        <mxCell id="1KCFlJfuKgQnNo9uZqeQ-32" value="" style="sketch=0;pointerEvents=1;shadow=0;dashed=0;html=1;strokeColor=none;labelPosition=center;verticalLabelPosition=bottom;verticalAlign=top;outlineConnect=0;align=center;shape=mxgraph.office.security.lock_protected;fillColor=#7FBA42;rounded=0;glass=1;fontSize=20;" parent="1" vertex="1">
          <mxGeometry x="515.5" y="210" width="29" height="42" as="geometry" />
        </mxCell>
        <mxCell id="1KCFlJfuKgQnNo9uZqeQ-34" value="" style="sketch=0;pointerEvents=1;shadow=0;dashed=0;html=1;strokeColor=none;labelPosition=center;verticalLabelPosition=bottom;verticalAlign=top;outlineConnect=0;align=center;shape=mxgraph.office.security.lock_protected;fillColor=#7FBA42;rounded=0;glass=1;fontSize=20;" parent="1" vertex="1">
          <mxGeometry x="511.5" y="500" width="29" height="42" as="geometry" />
        </mxCell>
        <mxCell id="1KCFlJfuKgQnNo9uZqeQ-35" value="" style="shape=flexArrow;endArrow=classic;html=1;rounded=0;fontSize=20;curved=1;entryX=0.75;entryY=1;entryDx=0;entryDy=0;fillColor=#d5e8d4;strokeColor=#82b366;" parent="1" source="1KCFlJfuKgQnNo9uZqeQ-32" target="1KCFlJfuKgQnNo9uZqeQ-10" edge="1">
          <mxGeometry width="50" height="50" relative="1" as="geometry">
            <mxPoint x="490" y="260" as="sourcePoint" />
            <mxPoint x="540" y="210" as="targetPoint" />
          </mxGeometry>
        </mxCell>
        <mxCell id="1KCFlJfuKgQnNo9uZqeQ-36" value="" style="shape=flexArrow;endArrow=classic;html=1;rounded=0;fontSize=20;curved=1;entryX=0.75;entryY=1;entryDx=0;entryDy=0;fillColor=#d5e8d4;strokeColor=#82b366;" parent="1" edge="1">
          <mxGeometry width="50" height="50" relative="1" as="geometry">
            <mxPoint x="511.5" y="505.92500000000007" as="sourcePoint" />
            <mxPoint x="466" y="490" as="targetPoint" />
          </mxGeometry>
        </mxCell>
        <mxCell id="1KCFlJfuKgQnNo9uZqeQ-44" value="" style="group" parent="1" vertex="1" connectable="0">
          <mxGeometry x="190" y="680" width="120" height="100" as="geometry" />
        </mxCell>
        <mxCell id="1KCFlJfuKgQnNo9uZqeQ-3" value="pod-0" style="rounded=0;whiteSpace=wrap;html=1;fillColor=#f5f5f5;strokeColor=#666666;verticalAlign=top;fontColor=#333333;" parent="1KCFlJfuKgQnNo9uZqeQ-44" vertex="1">
          <mxGeometry width="120" height="100" as="geometry" />
        </mxCell>
        <mxCell id="1KCFlJfuKgQnNo9uZqeQ-39" value="&lt;font style=&quot;font-size: 14px;&quot;&gt;JVM&lt;/font&gt;" style="rounded=0;whiteSpace=wrap;html=1;verticalAlign=bottom;fillColor=#ffe6cc;strokeColor=#d79b00;" parent="1KCFlJfuKgQnNo9uZqeQ-44" vertex="1">
          <mxGeometry x="10" y="30" width="102.5" height="60" as="geometry" />
        </mxCell>
        <mxCell id="1KCFlJfuKgQnNo9uZqeQ-40" value="Thread" style="rounded=0;whiteSpace=wrap;html=1;fontSize=14;fillColor=#dae8fc;strokeColor=#6c8ebf;" parent="1KCFlJfuKgQnNo9uZqeQ-44" vertex="1">
          <mxGeometry x="17.5" y="40" width="87.5" height="20" as="geometry" />
        </mxCell>
        <mxCell id="1KCFlJfuKgQnNo9uZqeQ-45" value="" style="group" parent="1" vertex="1" connectable="0">
          <mxGeometry x="190" y="800" width="120" height="100" as="geometry" />
        </mxCell>
        <mxCell id="1KCFlJfuKgQnNo9uZqeQ-46" value="pod-1" style="rounded=0;whiteSpace=wrap;html=1;fillColor=#f5f5f5;strokeColor=#666666;verticalAlign=top;fontColor=#333333;" parent="1KCFlJfuKgQnNo9uZqeQ-45" vertex="1">
          <mxGeometry width="120" height="100" as="geometry" />
        </mxCell>
        <mxCell id="1KCFlJfuKgQnNo9uZqeQ-47" value="&lt;font style=&quot;font-size: 14px;&quot;&gt;JVM&lt;/font&gt;" style="rounded=0;whiteSpace=wrap;html=1;verticalAlign=bottom;fillColor=#ffe6cc;strokeColor=#d79b00;" parent="1KCFlJfuKgQnNo9uZqeQ-45" vertex="1">
          <mxGeometry x="10" y="30" width="102.5" height="60" as="geometry" />
        </mxCell>
        <mxCell id="1KCFlJfuKgQnNo9uZqeQ-48" value="Thread" style="rounded=0;whiteSpace=wrap;html=1;fontSize=14;fillColor=#dae8fc;strokeColor=#6c8ebf;" parent="1KCFlJfuKgQnNo9uZqeQ-45" vertex="1">
          <mxGeometry x="17.5" y="40" width="87.5" height="20" as="geometry" />
        </mxCell>
        <mxCell id="1KCFlJfuKgQnNo9uZqeQ-50" value="" style="shape=datastore;whiteSpace=wrap;html=1;rounded=0;shadow=0;glass=1;sketch=1;fontSize=20;" parent="1" vertex="1">
          <mxGeometry x="424" y="740" width="60" height="60" as="geometry" />
        </mxCell>
        <mxCell id="1KCFlJfuKgQnNo9uZqeQ-51" value="&lt;span style=&quot;color: rgb(0, 0, 0); font-family: Helvetica; font-size: 14px; font-style: normal; font-variant-ligatures: normal; font-variant-caps: normal; font-weight: 400; letter-spacing: normal; orphans: 2; text-indent: 0px; text-transform: none; widows: 2; word-spacing: 0px; -webkit-text-stroke-width: 0px; background-color: rgb(251, 251, 251); text-decoration-thickness: initial; text-decoration-style: initial; text-decoration-color: initial; float: none; display: inline !important;&quot;&gt;共享资源（如数据库中表的某一行）&lt;/span&gt;" style="text;whiteSpace=wrap;html=1;fontSize=20;align=center;" parent="1" vertex="1">
          <mxGeometry x="390" y="800" width="150" height="40" as="geometry" />
        </mxCell>
        <mxCell id="1KCFlJfuKgQnNo9uZqeQ-52" value="" style="endArrow=classic;html=1;rounded=0;fontSize=20;curved=1;exitX=1;exitY=0.5;exitDx=0;exitDy=0;entryX=0;entryY=0.5;entryDx=0;entryDy=0;" parent="1" source="1KCFlJfuKgQnNo9uZqeQ-48" target="1KCFlJfuKgQnNo9uZqeQ-50" edge="1">
          <mxGeometry width="50" height="50" relative="1" as="geometry">
            <mxPoint x="380" y="920" as="sourcePoint" />
            <mxPoint x="430" y="870" as="targetPoint" />
          </mxGeometry>
        </mxCell>
        <mxCell id="1KCFlJfuKgQnNo9uZqeQ-53" value="" style="endArrow=classic;html=1;rounded=0;fontSize=20;curved=1;exitX=1;exitY=0.5;exitDx=0;exitDy=0;entryX=0;entryY=0.5;entryDx=0;entryDy=0;" parent="1" source="1KCFlJfuKgQnNo9uZqeQ-40" target="1KCFlJfuKgQnNo9uZqeQ-50" edge="1">
          <mxGeometry width="50" height="50" relative="1" as="geometry">
            <mxPoint x="305" y="860" as="sourcePoint" />
            <mxPoint x="434" y="780" as="targetPoint" />
          </mxGeometry>
        </mxCell>
        <mxCell id="1KCFlJfuKgQnNo9uZqeQ-54" value="&lt;font style=&quot;font-size: 12px;&quot;&gt;race condition&lt;/font&gt;" style="shape=callout;whiteSpace=wrap;html=1;perimeter=calloutPerimeter;rounded=0;fontSize=10;base=10;size=30;position=0.16;position2=0.1;fillColor=#f8cecc;strokeColor=#b85450;shadow=0;sketch=1;curveFitting=1;jiggle=2;" parent="1" vertex="1">
          <mxGeometry x="360" y="680" width="100" height="60" as="geometry" />
        </mxCell>
        <mxCell id="1KCFlJfuKgQnNo9uZqeQ-55" value="&lt;font size=&quot;1&quot; style=&quot;&quot;&gt;&lt;b style=&quot;font-size: 20px;&quot;&gt;分布式锁&lt;/b&gt;&lt;/font&gt;" style="text;html=1;strokeColor=none;fillColor=none;align=center;verticalAlign=middle;whiteSpace=wrap;rounded=0;fontSize=12;" parent="1" vertex="1">
          <mxGeometry x="182" y="600" width="120" height="30" as="geometry" />
        </mxCell>
        <mxCell id="1KCFlJfuKgQnNo9uZqeQ-56" value="&lt;font style=&quot;font-size: 12px;&quot;&gt;需使用Redis&lt;br&gt;等分布式锁机制&lt;/font&gt;" style="shape=callout;whiteSpace=wrap;html=1;perimeter=calloutPerimeter;rounded=0;fontSize=10;base=10;size=30;position=0.25;position2=0;fillColor=#d5e8d4;strokeColor=#82b366;shadow=0;sketch=1;curveFitting=1;jiggle=2;" parent="1" vertex="1">
          <mxGeometry x="575.5" y="670" width="100" height="90" as="geometry" />
        </mxCell>
        <mxCell id="1KCFlJfuKgQnNo9uZqeQ-57" value="" style="sketch=0;pointerEvents=1;shadow=0;dashed=0;html=1;strokeColor=none;labelPosition=center;verticalLabelPosition=bottom;verticalAlign=top;outlineConnect=0;align=center;shape=mxgraph.office.security.lock_protected;fillColor=#7FBA42;rounded=0;glass=1;fontSize=20;" parent="1" vertex="1">
          <mxGeometry x="535.5" y="730" width="29" height="42" as="geometry" />
        </mxCell>
        <mxCell id="1KCFlJfuKgQnNo9uZqeQ-58" value="" style="shape=flexArrow;endArrow=classic;html=1;rounded=0;fontSize=20;curved=1;fillColor=#d5e8d4;strokeColor=#82b366;" parent="1" source="1KCFlJfuKgQnNo9uZqeQ-57" edge="1">
          <mxGeometry width="50" height="50" relative="1" as="geometry">
            <mxPoint x="535.5" y="735.9250000000002" as="sourcePoint" />
            <mxPoint x="490" y="760" as="targetPoint" />
          </mxGeometry>
        </mxCell>
      </root>
    </mxGraphModel>
  </diagram>
</mxfile>
